<svg width="22" height="22" viewBox="0 0 22 22" fill="none" xmlns="http://www.w3.org/2000/svg">
<path fill-rule="evenodd" clip-rule="evenodd" d="M0 19.525C0 20.889 1.111 22 2.475 22H19.525C20.889 22 22 20.889 22 19.525V2.475C22 1.111 20.889 0 19.525 0H2.475C1.111 0 0 1.111 0 2.475V19.525ZM1.65 2.475C1.65 2.0207 2.0196 1.65 2.475 1.65H19.525C19.9804 1.65 20.35 2.0207 20.35 2.475V19.525C20.35 19.9793 19.9804 20.35 19.525 20.35H2.475C2.0196 20.35 1.65 19.9793 1.65 19.525V2.475ZM5.5 7.30402H16.5C16.9554 7.30402 17.325 6.93552 17.325 6.47902C17.325 6.02252 16.9554 5.65402 16.5 5.65402H5.5C5.0446 5.65402 4.675 6.02472 4.675 6.47902C4.675 6.93332 5.0446 7.30402 5.5 7.30402ZM5.5 11.825H16.5C16.9554 11.825 17.325 11.4554 17.325 11C17.325 10.5446 16.9554 10.175 16.5 10.175H5.5C5.0446 10.175 4.675 10.5446 4.675 11C4.675 11.4554 5.0446 11.825 5.5 11.825ZM5.5 16.346H11C11.4554 16.346 11.825 15.9753 11.825 15.521C11.825 15.0667 11.4554 14.696 11 14.696H5.5C5.0446 14.696 4.675 15.0645 4.675 15.521C4.675 15.9775 5.0446 16.346 5.5 16.346Z" fill="white"/>
</svg>
