<svg width="24" height="24" viewBox="0 0 24 24" fill="none" xmlns="http://www.w3.org/2000/svg">
<path fill-rule="evenodd" clip-rule="evenodd" d="M0 12C0 18.6173 5.3827 24 12 24C18.6173 24 24 18.6173 24 12C24 5.3827 18.6173 0 12 0C5.3827 0 0 5.3827 0 12ZM1.67442 12C1.67442 6.30698 6.30698 1.67442 12 1.67442C17.693 1.67442 22.3256 6.30698 22.3256 12C22.3256 17.693 17.693 22.3256 12 22.3256C6.30698 22.3256 1.67442 17.693 1.67442 12ZM15.0698 12C15.0698 10.925 15.946 10.0465 17.0233 10.0465C18.0993 10.0465 18.9767 10.9239 18.9767 12C18.9767 13.0761 18.0993 13.9535 17.0233 13.9535C15.9449 13.9535 15.0698 13.075 15.0698 12ZM16.186 12C16.186 12.4621 16.5611 12.8372 17.0233 12.8372C17.4854 12.8372 17.8605 12.461 17.8605 12C17.8605 11.5379 17.4843 11.1628 17.0233 11.1628C16.5622 11.1628 16.186 11.539 16.186 12ZM10.0465 12C10.0465 10.925 10.9217 10.0465 12 10.0465C13.0783 10.0465 13.9535 10.9239 13.9535 12C13.9535 13.0761 13.0772 13.9535 12 13.9535C10.9228 13.9535 10.0465 13.075 10.0465 12ZM11.1628 12C11.1628 12.4621 11.5379 12.8372 12 12.8372C12.4621 12.8372 12.8372 12.461 12.8372 12C12.8372 11.5379 12.461 11.1628 12 11.1628C11.539 11.1628 11.1628 11.539 11.1628 12ZM5.02326 12C5.02326 10.925 5.89954 10.0465 6.97674 10.0465C8.05172 10.0465 8.93023 10.9239 8.93023 12C8.93023 13.0761 8.05284 13.9535 6.97674 13.9535C5.89954 13.9535 5.02326 13.075 5.02326 12ZM6.13953 12C6.13953 12.4621 6.5146 12.8372 6.97674 12.8372C7.43888 12.8372 7.81395 12.461 7.81395 12C7.81395 11.5379 7.43777 11.1628 6.97674 11.1628C6.51572 11.1628 6.13953 11.539 6.13953 12Z" fill="white"/>
</svg>
