<svg width="23" height="23" viewBox="0 0 23 23" fill="none" xmlns="http://www.w3.org/2000/svg">
<path d="M22.655 16.6762C22.632 16.6578 20.1938 14.795 20.2363 9.75931C20.2593 6.85492 19.3024 4.274 17.5369 2.49259C15.9555 0.894719 13.814 0.0114707 11.508 0H11.493C9.18814 0.0114707 7.04659 0.894719 5.46401 2.49374C3.69971 4.27515 2.7405 6.85492 2.7658 9.75931C2.80836 14.7261 0.442534 16.6039 0.348223 16.6762C0.0491892 16.8976 -0.072725 17.2841 0.0434384 17.6374C0.160752 17.9907 0.49199 18.2282 0.862332 18.2282H6.52098C6.6383 20.8779 8.81779 23 11.5011 23C14.1843 23 16.3615 20.8779 16.4777 18.2282H22.1386C22.509 18.2282 22.8402 17.9919 22.9552 17.6386C23.0737 17.2864 22.9518 16.8987 22.6527 16.6773L22.655 16.6762ZM11.5022 21.2759C9.77125 21.2759 8.36234 19.9258 8.24963 18.227H14.7548C14.6398 19.9247 13.2332 21.2782 11.5022 21.2782V21.2759ZM2.7382 16.5064C3.5893 15.2079 4.5186 13.0331 4.491 9.74325C4.4703 7.26557 5.23168 5.1756 6.6912 3.70161C7.9483 2.4318 9.65854 1.72864 11.5022 1.72061C13.3459 1.72979 15.0527 2.4318 16.3098 3.70276C17.7704 5.17675 18.533 7.26557 18.5123 9.7444C18.4847 13.0342 19.4151 15.2102 20.2662 16.5076H2.7382V16.5064Z" fill="white"/>
</svg>
