<svg fill="#ffffff" viewBox="0 0 24 24" id="repost-2" data-name="Flat Color" xmlns="http://www.w3.org/2000/svg" class="icon flat-color"><g id="SVGRepo_bgCarrier" stroke-width="0"></g><g id="SVGRepo_tracerCarrier" stroke-linecap="round" stroke-linejoin="round"></g><g id="SVGRepo_iconCarrier"><path id="secondary" d="M20.71,11.29l-2-2a1,1,0,0,0-1.42,0l-2,2a1,1,0,0,0,1.42,1.42l.29-.3V20H7V18a1,1,0,0,0-2,0v2a2,2,0,0,0,2,2H17a2,2,0,0,0,2-2V12.41l.29.3a1,1,0,0,0,1.42,0A1,1,0,0,0,20.71,11.29Z" style="fill: #2ca9bc;"></path><path id="primary" d="M17,2H7A2,2,0,0,0,5,4v7.59l-.29-.3a1,1,0,0,0-1.42,1.42l2,2a1,1,0,0,0,1.42,0l2-2a1,1,0,0,0-1.42-1.42l-.29.3V4H17V6a1,1,0,0,0,2,0V4A2,2,0,0,0,17,2Z" style="fill: #FFFFFF;"></path></g></svg>